<svg xmlns="http://www.w3.org/2000/svg" width="150" height="35" fill="none"><g fill="#46A358" clip-path="url(#a)"><path d="M17.15 0C7.6775 0 0 7.6775 0 17.15c0 8.8701 6.7355 16.1675 15.3711 17.057-.5215-4.2936-.3275-7.8069.3356-10.6935-.372-1.791-1.2169-4.4432-3.1333-6.3271 0 0 1.2614 1.892 1.9447 4.435 0 .0041.004.0081.004.0121.0728.2709.1375.5458.1941.8288.0121.0647.0242.1294.0364.1981.0525.2911.101.5822.1334.8814-9.6909-1.1886-11.7568-9.8849-11.5304-13.1637 10.3094.5701 12.4198 7.4511 12.7271 11.7204 3.3758-11.0573 14.1016-11.6961 14.987-11.7204.3841 8.4982-5.9188 15.1245-13.4548 15.7026.0486-.2304.1052-.4609.1618-.6873.0161-.0687.0363-.1334.0566-.2021.0444-.1617.0889-.3234.1415-.4852.0202-.0687.0444-.1415.0646-.2102.0566-.1779.1173-.3517.1779-.5296.0162-.0404.0283-.0809.0445-.1213.0768-.2102.1577-.4124.2385-.6145.0081-.0162.0122-.0364.0202-.0526h.0041c1.9325-4.6736 5.4983-7.734 5.4983-7.734-6.9982 4.0429-8.1788 14.5544-8.3647 18.7792.4932.0445.9864.0768 1.4918.0768 9.4725 0 17.15-7.6774 17.15-17.1499S26.6225 0 17.15 0ZM46.7037 10.7454c2.2681 0 4.1198.9743 5.3205 2.7532l-2.2478 1.9123c-.8046-1.1239-1.7789-1.7061-3.1293-1.7061-2.078 0-3.3718 1.3665-3.3718 3.4486 0 2.1185 1.3665 3.5416 3.5619 3.5416 1.1805 0 2.1184-.4124 2.7168-1.1038v-.5821h-2.8867v-2.7735h6.1089v3.8974c-.5822 1.0309-1.4069 1.8557-2.4743 2.4904-1.0673.6186-2.268.938-3.5982.938-3.7114.0566-6.78-2.8301-6.7274-6.408-.0566-3.5578 3.016-6.4646 6.7274-6.408ZM61.9576 23.3316l-2.7896-3.8408h-1.3301v3.8408h-3.2222V10.9684h4.8515c2.7532 0 4.7787 1.6859 4.7787 4.2531 0 1.5161-.7318 2.7735-1.9487 3.5214l3.2586 4.5887h-3.5982Zm-4.1238-6.6506h1.6495c.8976 0 1.4797-.5822 1.4797-1.4595s-.5821-1.4433-1.4797-1.4433h-1.6495v2.9028ZM66.8333 10.9684h8.5791v2.9028h-5.3569v1.7061h3.8205v2.6966h-3.8205v2.1549h5.5833v2.9028h-8.8055V10.9684ZM77.6441 10.9684h8.579v2.9028h-5.3568v1.7061h3.8205v2.6966h-3.8205v2.1549h5.5832v2.9028h-8.8054V10.9684ZM99.4192 10.9683v12.5896h-1.031L91.681 17.057v6.2745h-3.2222V10.7419h1.0309l6.7073 6.408v-6.1816h3.2222ZM103.264 19.135c.732.9744 1.5 1.5929 2.753 1.5929.845 0 1.274-.2991 1.274-.9015 0-.5418-.283-.7116-1.258-1.1442l-1.273-.5619c-2.042-.9016-3.129-2.0619-3.129-3.7276 0-2.1913 1.799-3.6548 4.326-3.6548 2.041 0 3.485.9744 4.233 2.4904l-2.155 1.6495c-.599-.8975-1.161-1.3099-2.042-1.3099-.675 0-1.104.2628-1.104.7884 0 .4488.263.6954 1.068 1.0107l1.423.5984c2.155.9016 3.165 1.9851 3.165 3.7275 0 2.3975-1.969 3.861-4.536 3.861-2.227 0-4.027-1.0673-4.928-2.7734l2.183-1.6455ZM112.393 10.9684h3.222v4.5159h4.516v-4.5159h3.222v12.3632h-3.222v-4.9445h-4.516v4.9445h-3.222V10.9684ZM131.843 10.7419c3.598-.0768 6.764 2.8665 6.687 6.408.073 3.578-3.089 6.4646-6.687 6.408-3.614.0566-6.727-2.83-6.65-6.408-.077-3.5415 3.036-6.4807 6.65-6.408Zm.016 2.9595c-1.985 0-3.371 1.4069-3.371 3.4485 0 1.031.319 1.8719.938 2.5107.618.6185 1.443.9379 2.433.9379 1.913 0 3.372-1.3867 3.372-3.4486.004-2.0416-1.459-3.4485-3.372-3.4485ZM140.374 10.9684h4.852c2.753 0 4.778 1.6859 4.778 4.2531 0 2.5309-2.078 4.2693-4.778 4.2693h-1.63v3.8408h-3.222V10.9684Zm4.868 5.7126c.897 0 1.479-.5822 1.479-1.4595s-.582-1.4433-1.479-1.4433h-1.65v2.9028h1.65Z"/></g><defs><clipPath id="a"><path fill="#fff" d="M0 0h150v34.2999H0z"/></clipPath></defs></svg>